<svg width="55" height="48" viewBox="0 0 55 48" fill="none" xmlns="http://www.w3.org/2000/svg">
<rect width="55" height="48" rx="10" fill="#004899"/>
<mask id="mask0_1635_18581" style="mask-type:alpha" maskUnits="userSpaceOnUse" x="13" y="4" width="35" height="40">
<rect x="13" y="4" width="35" height="40" fill="white"/>
</mask>
<g mask="url(#mask0_1635_18581)">
<path d="M41.523 19.9542H40.5545V16.0614H39.196V19.9542H35.976V16.0614H34.7434V19.9542H33.7748C33.518 19.9542 33.2716 20.0567 33.09 20.2393C32.9083 20.4218 32.8063 20.6693 32.8063 20.9274V24.8202C32.8078 25.9414 33.1939 27.0278 33.8996 27.8963C34.6053 28.7648 36.0905 29.3622 37.1835 29.5879V32.6058C37.3848 32.8639 36.9809 33.5159 36.7992 33.6984C36.6176 33.8809 35.9687 34.3879 35.7119 34.3879H18.2785C17.6191 34.3879 17.1911 33.9834 16.8571 33.6296C16.5049 33.6296 16.4546 32.6743 16.4546 32.4162C16.4546 31.8095 16.8571 31.6073 17.2596 31.4051C17.4413 31.2226 18.0216 31.2282 18.2785 31.2282H23.1211C23.8917 31.2282 24.6307 30.9206 25.1756 30.373C25.7205 29.8255 25.6241 29.0829 25.6241 28.713C25.6241 28.3431 25.7205 27.6005 25.1756 27.053C24.6307 26.5055 23.8917 26.6023 23.1211 26.6023H18.2785C18.0216 26.6023 17.3727 26.4998 17.1911 26.3173C17.0095 26.1347 16.5049 25.4828 16.5049 24.8202C16.5049 24.1577 17.0095 23.9101 17.1911 23.7276C17.3727 23.5451 18.0216 23.4426 18.2785 23.4426H23.1211C23.8914 23.4418 24.3625 23.1339 24.9072 22.5866C25.0494 22.4437 25.5102 21.7015 25.5109 20.9274V16.2257H26.9952C27.6197 16.2244 28.6044 15.8139 29.3306 15.0841C29.6544 14.7588 30.063 13.7694 30.0643 13.1418V11.0311H27.9637C26.1671 11.0326 25.6167 12.227 24.9007 12.9164C24.8014 11.5971 24.0648 10.4298 23.17 9.89815C22.2752 9.36653 21.255 9.08564 20.2155 9.08472H18.1149V11.1954C18.1167 12.7435 18.9877 13.9935 20.0771 15.0882C21.5691 16.1829 21.9829 16.2239 23.1211 16.2257H24.3034V20.9274C24.3034 21.1855 23.9876 21.8375 23.8059 22.02C23.6243 22.2025 23.3779 22.3051 23.1211 22.3051H18.2785C17.5079 22.3051 16.7688 22.2082 16.2239 22.7557C15.679 23.3033 15.3729 24.0459 15.3729 24.8202C15.3729 25.5945 15.679 26.3371 16.2239 26.8847C16.7688 27.4322 17.5079 27.7398 18.2785 27.7398H23.5236C23.7804 27.7398 24.0268 27.8423 24.2084 28.0248C24.3901 28.2074 24.4921 28.4549 24.4921 28.713C24.4921 28.9711 24.3901 29.6231 24.2084 29.8056C24.0268 29.9881 23.7804 30.0906 23.5236 30.0906H18.2785C17.5079 30.0906 16.7688 29.9938 16.2239 30.5413C15.679 31.0889 15.3729 31.8315 15.3729 32.6058C15.3729 33.3801 15.679 34.1227 16.2239 34.6703C16.7688 35.2178 17.5079 35.5254 18.2785 35.5254H35.7119C36.4822 35.5246 37.2208 35.2168 37.7656 34.6694C38.3103 34.122 38.3903 33.3799 38.391 32.6058V29.5879C39.484 29.3622 40.6926 28.7648 41.3983 27.8963C42.104 27.0278 42.4901 25.9414 42.4915 24.8202V20.9274C42.4915 20.6693 42.3895 20.4218 42.2079 20.2393C42.0262 20.0567 41.7799 19.9542 41.523 19.9542ZM26.0266 14.115C26.0272 13.599 26.2314 13.1042 26.5946 12.7393C26.9577 12.3744 27.4501 12.1691 27.9637 12.1686H28.9322V13.1418C28.9317 13.6579 28.7275 14.1527 28.3643 14.5176C28.0011 14.8825 27.5087 15.0877 26.9952 15.0882H26.0266V14.115ZM23.1211 15.0882C22.094 15.0869 21.1094 14.6764 20.3831 13.9466C19.6568 13.2169 19.2483 12.2275 19.247 11.1954V10.2222H20.2155C21.2426 10.2235 22.2272 10.6341 22.9535 11.3638C23.6797 12.0936 24.0883 13.083 24.0896 14.115V15.0882H23.1211ZM41.3595 24.8202C41.3595 25.5945 40.6509 27.146 40.106 27.6936C39.5611 28.2411 38.4195 28.5487 37.6489 28.5487C36.8783 28.5487 36.1393 28.2411 35.5944 27.6936C35.0495 27.146 33.9383 25.5945 33.9383 24.8202V21.0917H41.3595V24.8202Z" fill="white"/>
</g>
</svg>
