<svg width="83" height="118" viewBox="0 0 83 118" fill="none" xmlns="http://www.w3.org/2000/svg">
<mask id="mask0_1357_18687" style="mask-type:alpha" maskUnits="userSpaceOnUse" x="0" y="0" width="83" height="118">
<rect width="83" height="118" fill="white"/>
</mask>
<g mask="url(#mask0_1357_18687)">
<path opacity="0.45" d="M84.1429 47.065H81.2857V35.5813H77.2783V47.065H67.7792V35.5813H64.1429V47.065H61.2857C60.5279 47.065 59.8012 47.3675 59.2654 47.9059C58.7296 48.4443 58.4286 49.1745 58.4286 49.9359V61.4197C58.4328 64.7273 59.5719 67.9322 61.6537 70.4942C63.7356 73.0563 68.1171 74.8187 71.3414 75.4844V84.3872C71.9351 85.1486 70.7435 87.072 70.2077 87.6104C69.6719 88.1488 67.7578 89.6444 67 89.6444H15.5714C13.6263 89.6444 12.3637 88.4512 11.3785 87.4073C10.3395 87.4073 10.1911 84.5893 10.1911 83.8279C10.1911 82.0382 11.3785 81.4417 12.5659 80.8451C13.1017 80.3067 14.8137 80.3231 15.5714 80.3231H29.8571C32.1304 80.3231 34.3106 79.4157 35.9181 77.8005C37.5255 76.1853 37.2412 73.9946 37.2412 72.9034C37.2412 71.8123 37.5255 69.6216 35.9181 68.0064C34.3106 66.3912 32.1304 66.6769 29.8571 66.6769H15.5714C14.8137 66.6769 12.8996 66.3744 12.3637 65.836C11.8279 65.2976 10.3395 63.3742 10.3395 61.4197C10.3395 59.4652 11.8279 58.7349 12.3637 58.1965C12.8996 57.6581 14.8137 57.3556 15.5714 57.3556H29.8571C32.1297 57.3534 33.5192 56.4452 35.1262 54.8305C35.5457 54.4089 36.905 52.2195 36.9072 49.9359V36.066H41.2857C43.1282 36.0622 46.0329 34.8511 48.1754 32.6983C49.1304 31.7386 50.3357 28.8198 50.3395 26.9685V20.7419H44.1429C38.8428 20.7462 37.2191 24.2697 35.1069 26.3034C34.8141 22.4116 32.6412 18.9679 30.0016 17.3996C27.3619 15.8313 24.3522 15.0027 21.2857 15H15.0891V21.2266C15.0943 25.7935 17.6638 29.481 20.8776 32.7103C25.2787 35.9396 26.4996 36.0606 29.8571 36.066H33.3451V49.9359C33.3451 50.6974 32.4133 52.6207 31.8774 53.1591C31.3416 53.6975 30.6149 54 29.8571 54H15.5714C13.2981 54 11.118 53.7143 9.51051 55.3295C7.90306 56.9447 7 59.1354 7 61.4197C7 63.704 7.90306 65.8947 9.51051 67.5099C11.118 69.1251 13.2981 70.0325 15.5714 70.0325H31.0445C31.8023 70.0325 32.529 70.335 33.0648 70.8734C33.6006 71.4118 33.9017 72.142 33.9017 72.9034C33.9017 73.6649 33.6006 75.5882 33.0648 76.1266C32.529 76.665 31.8023 76.9675 31.0445 76.9675H15.5714C13.2981 76.9675 11.118 76.6818 9.51051 78.297C7.90306 79.9122 7 82.1029 7 84.3872C7 86.6715 7.90306 88.8622 9.51051 90.4774C11.118 92.0926 13.2981 93 15.5714 93H67C69.2726 92.9977 71.4514 92.0896 73.0584 90.4749C74.6654 88.8601 74.9013 86.6708 74.9035 84.3872V75.4844C78.1278 74.8187 81.693 73.0563 83.7748 70.4942C85.8567 67.9322 86.9957 64.7273 87 61.4197V49.9359C87 49.1745 86.699 48.4443 86.1632 47.9059C85.6273 47.3675 84.9006 47.065 84.1429 47.065ZM38.4286 29.8394C38.4301 28.317 39.0326 26.8574 40.1039 25.781C41.1752 24.7045 42.6278 24.099 44.1429 24.0975H47V26.9685C46.9985 28.4908 46.396 29.9504 45.3247 31.0269C44.2533 32.1034 42.8008 32.7088 41.2857 32.7103H38.4286V29.8394ZM29.8571 32.7103C26.8273 32.7065 23.9226 31.4954 21.7801 29.3426C19.6376 27.1898 18.4324 24.2711 18.4286 21.2266V18.3556H21.2857C24.3156 18.3594 27.2203 19.5706 29.3628 21.7233C31.5052 23.8761 32.7105 26.7949 32.7143 29.8394V32.7103H29.8571ZM83.6605 61.4197C83.6605 63.704 81.57 68.2809 79.9626 69.8961C78.3551 71.5113 74.9876 72.4187 72.7143 72.4187C70.441 72.4187 68.2608 71.5113 66.6534 69.8961C65.0459 68.2809 61.7681 63.704 61.7681 61.4197V50.4207H83.6605V61.4197Z" fill="#004899"/>
</g>
</svg>
