<svg width="83" height="118" viewBox="0 0 83 118" fill="none" xmlns="http://www.w3.org/2000/svg">
<mask id="mask0_1357_18595" style="mask-type:alpha" maskUnits="userSpaceOnUse" x="0" y="0" width="83" height="118">
<rect width="83" height="118" fill="white"/>
</mask>
<g mask="url(#mask0_1357_18595)">
<g opacity="0.45">
<path d="M11.75 38.25H31.4101C30.6393 39.707 30.0658 40.1362 29.7274 41.8H11.75C11.05 41.8 9.94071 42.5593 9.5 43C8.5 44 8.2 45.5 8.2 46.3V47.65C8.2 54 15.5 62 23 62C22 63 21 64.1 20.2805 65.4348C10.3635 62.7511 4.69995 55.1089 4.69995 47.65V45.3C4.69995 43.4302 5.44272 41.637 6.76485 40.3149C8.08698 38.9928 9.88017 38.25 11.75 38.25ZM68.0889 65.8437C66.8061 64.7176 65.1569 64.0977 63.4499 64.1H30.5499C29.6234 64.0975 28.7056 64.2782 27.8491 64.6316C26.9926 64.985 26.2145 65.5042 25.5593 66.1594C24.9042 66.8145 24.385 67.5927 24.0315 68.4492C23.6781 69.3056 23.4975 70.2235 23.5 71.15V73.5C23.5 82.7637 32.242 92.3 47 92.3C61.7579 92.3 70.4999 82.7637 70.4999 73.5V71.15C70.4999 69.035 69.5694 67.1362 68.0889 65.839V65.8437ZM26.9 71.15C26.9 70.4 27.5593 69.3407 28 68.9C29 67.9 29.9267 67.6 30.5499 67.6H64.4499C65.0732 67.6 66 68 66.5 68.9C66.9121 69.6417 67.1 70.4 67.1 71.15L67 73.5C67 80.2586 61.0696 88.8 47 88.8C32.9304 88.8 26.9 80.2586 26.9 73.5V71.15Z" fill="#004899"/>
<path fill-rule="evenodd" clip-rule="evenodd" d="M28.05 28.8C32.6064 28.8 36.3 25.1064 36.3 20.55C36.3 15.9937 32.6064 12.3 28.05 12.3C23.4937 12.3 19.8 15.9937 19.8 20.55C19.8 25.1064 23.4937 28.8 28.05 28.8ZM28.05 32.3C34.5394 32.3 39.8 27.0394 39.8 20.55C39.8 14.0607 34.5394 8.80005 28.05 8.80005C21.5607 8.80005 16.3 14.0607 16.3 20.55C16.3 27.0394 21.5607 32.3 28.05 32.3Z" fill="#004899"/>
<path fill-rule="evenodd" clip-rule="evenodd" d="M66.05 28.8C70.6064 28.8 74.3 25.1064 74.3 20.55C74.3 15.9937 70.6064 12.3 66.05 12.3C61.4937 12.3 57.8 15.9937 57.8 20.55C57.8 25.1064 61.4937 28.8 66.05 28.8ZM66.05 32.3C72.5394 32.3 77.8 27.0394 77.8 20.55C77.8 14.0607 72.5394 8.80005 66.05 8.80005C59.5607 8.80005 54.3 14.0607 54.3 20.55C54.3 27.0394 59.5607 32.3 66.05 32.3Z" fill="#004899"/>
<path fill-rule="evenodd" clip-rule="evenodd" d="M47.05 54.8C51.6064 54.8 55.3 51.1064 55.3 46.55C55.3 41.9937 51.6064 38.3 47.05 38.3C42.4937 38.3 38.8 41.9937 38.8 46.55C38.8 51.1064 42.4937 54.8 47.05 54.8ZM47.05 58.3C53.5394 58.3 58.8 53.0394 58.8 46.55C58.8 40.0607 53.5394 34.8 47.05 34.8C40.5607 34.8 35.3 40.0607 35.3 46.55C35.3 53.0394 40.5607 58.3 47.05 58.3Z" fill="#004899"/>
<path d="M82.3602 38.25H62.7001C63.4709 39.707 64.0443 40.1362 64.3827 41.8H82.3602C83.0601 41.8 84.1694 42.5593 84.6101 43C85.6101 44 85.9101 45.5 85.9101 46.3V47.65C85.9101 54 78.6101 62 71.1101 62C72.1101 63 73.1101 64.1 73.8297 65.4348C83.7467 62.7511 89.4102 55.1089 89.4102 47.65V45.3C89.4102 43.4302 88.6674 41.637 87.3453 40.3149C86.0231 38.9928 84.2299 38.25 82.3602 38.25Z" fill="#004899"/>
</g>
</g>
</svg>
