<svg width="83" height="118" viewBox="0 0 83 118" fill="none" xmlns="http://www.w3.org/2000/svg">
<mask id="mask0_1357_18719" style="mask-type:alpha" maskUnits="userSpaceOnUse" x="0" y="0" width="83" height="118">
<rect width="83" height="118" fill="white"/>
</mask>
<g mask="url(#mask0_1357_18719)">
<path opacity="0.45" d="M86.2994 54.413C86.9571 54.413 87.326 54.9236 87.4039 55.1016C87.6289 55.6159 87.8959 56.4936 87.8959 57.329V83.7623C88.0181 87.4163 87.5746 89.8148 85.9319 91.3224C84.4024 92.7219 82.185 93.1224 79.3115 92.9694H16.696C13.7818 92.8254 11.5192 91.6509 10.4693 89.2793C9.77245 87.7178 9.44664 85.8728 9.44664 83.7533V57.3245C9.44664 56.4891 9.78037 55.6879 10.3744 55.0971C10.3744 54.7938 10.8232 54.2313 11.5194 54.1745C11.9108 54.1426 12.6333 54.5774 12.6333 55.0971C13.2274 55.6879 12.9972 56.4891 12.9972 57.3245V83.7533C12.9972 84.7973 13.1149 87.0279 13.314 87.6669L14.3042 88.847L15.479 89.2793C16.3927 89.5393 16.3838 89.4116 16.8454 89.4386H79.4744C80.5831 89.5016 84.0738 86.6693 84.3227 86.6648L84.3408 86.6603C84.282 86.4218 84.3951 85.4453 84.3408 83.8613V57.3245C84.3408 56.9105 84.4229 56.5005 84.5824 56.118C84.7418 55.7355 84.8031 55.3942 85.0978 55.1016C85.3924 54.8091 85.6417 54.413 86.2994 54.413C86.5335 54.4275 85.883 54.4124 86.2994 54.413ZM49.6849 3C50.8796 3 51.9475 3.468 52.9521 4.33651L91.9821 40.9624C92.2899 41.2452 92.5382 41.586 92.7126 41.9649C92.8871 42.3439 92.9841 42.7535 92.9982 43.17C93.0123 43.5865 92.9431 44.0017 92.7947 44.3915C92.6463 44.7812 92.4216 45.1378 92.1336 45.4406C91.8456 45.7433 91.5001 45.9863 91.117 46.1553C90.7339 46.3243 90.3209 46.416 89.9019 46.4252C89.4829 46.4343 89.0663 46.3607 88.6761 46.2086C88.2859 46.0564 87.93 43.0596 87.6289 42.7697L49.5401 7.02131L5.9493 43.1542C5.31321 43.7003 4.40641 44.8597 3.56838 44.7985C3.56838 44.7985 2.69463 44.7985 2.46944 44.5389C1.92078 43.9063 1.77119 42.4619 2.46824 41.7696C3.16357 41.0773 2.93229 41.4094 3.56838 40.8634L46.3136 4.24651L46.7028 3.95851C47.6712 3.3555 48.6396 3.0045 49.6894 3.0045L49.6849 3Z" fill="#004899"/>
</g>
</svg>
