<svg width="83" height="118" viewBox="0 0 83 118" fill="none" xmlns="http://www.w3.org/2000/svg">
<mask id="mask0_1357_18668" style="mask-type:alpha" maskUnits="userSpaceOnUse" x="0" y="0" width="83" height="118">
<rect width="83" height="118" fill="white"/>
</mask>
<g mask="url(#mask0_1357_18668)">
<g opacity="0.45">
<path d="M3.5625 20.9688V76.75H95.4375V20.9688H3.5625ZM16.6875 24.5312H82.3125C82.3125 26.2717 85.0039 29.9409 86.2346 31.1716C87.4653 32.4023 90.1345 34.0938 91.875 34.0938V63.625C90.1345 63.625 87.4653 65.3164 86.2346 66.5471C85.0039 67.7778 82.3125 71.447 82.3125 73.1875H16.6875C16.6875 71.447 14.9961 68.7778 13.7654 67.5471C12.5347 66.3164 8.86548 63.625 7.125 63.625V34.0938C8.86548 34.0938 12.5347 31.4023 13.7654 30.1716C14.9961 28.9409 16.6875 26.2717 16.6875 24.5312ZM24.8906 43.9375C24.2441 43.9377 23.6039 44.0653 23.0066 44.3129C22.4093 44.5605 21.8667 44.9234 21.4097 45.3807C20.9526 45.8381 20.5901 46.381 20.3429 46.9784C20.0957 47.5758 19.9685 48.2161 19.9688 48.8627C19.969 49.5092 20.0965 50.1494 20.3442 50.7467C20.5918 51.3439 20.9546 51.8866 21.412 52.3436C21.8693 52.8007 22.4122 53.1631 23.0096 53.4104C23.6071 53.6576 24.2473 53.7847 24.8939 53.7845C26.1997 53.7841 27.4518 53.265 28.3749 52.3413C29.2979 51.4177 29.8162 50.1652 29.8158 48.8594C29.8153 47.5536 29.2962 46.3014 28.3726 45.3784C27.4489 44.4554 26.1964 43.9371 24.8906 43.9375ZM74.1094 43.9375C73.4628 43.9377 72.8226 44.0653 72.2253 44.3129C71.6281 44.5605 71.0854 44.9234 70.6284 45.3807C70.1714 45.8381 69.8089 46.381 69.5617 46.9784C69.3144 47.5758 69.1873 48.2161 69.1875 48.8627C69.1877 49.5092 69.3153 50.1494 69.5629 50.7467C69.8105 51.3439 70.1734 51.8866 70.6307 52.3436C71.0881 52.8007 71.631 53.1631 72.2284 53.4104C72.8258 53.6576 73.4661 53.7847 74.1127 53.7845C75.4185 53.7841 76.6706 53.265 77.5936 52.3413C78.5167 51.4177 79.035 50.1652 79.0345 48.8594C79.0341 47.5536 78.515 46.3014 77.5913 45.3784C76.6677 44.4554 75.4152 43.9371 74.1094 43.9375Z" fill="#004899"/>
<path fill-rule="evenodd" clip-rule="evenodd" d="M50 59.5319C54.6533 59.5319 58.4255 54.8166 58.4255 49C58.4255 43.1834 54.6533 38.4681 50 38.4681C45.3467 38.4681 41.5745 43.1834 41.5745 49C41.5745 54.8166 45.3467 59.5319 50 59.5319ZM50 64C56.6274 64 62 57.2843 62 49C62 40.7157 56.6274 34 50 34C43.3726 34 38 40.7157 38 49C38 57.2843 43.3726 64 50 64Z" fill="#004899"/>
</g>
</g>
</svg>
