<svg width="83" height="118" viewBox="0 0 83 118" fill="none" xmlns="http://www.w3.org/2000/svg">
<mask id="mask0_1360_18606" style="mask-type:alpha" maskUnits="userSpaceOnUse" x="0" y="0" width="83" height="118">
<rect width="83" height="118" fill="white"/>
</mask>
<g mask="url(#mask0_1360_18606)">
<path opacity="0.45" fill-rule="evenodd" clip-rule="evenodd" d="M61.5009 18.0952C61.3893 18.0952 61.279 18.1193 61.1776 18.166C61.0762 18.2127 60.9861 18.2807 60.9135 18.3655C57.9384 21.8453 51.6061 29.595 46.0255 38.6858C40.4054 47.841 35.7188 58.0882 35.7188 66.625C35.7188 74.6769 38.2467 81.0881 42.6418 85.4832C47.0369 89.8783 53.4481 92.4062 61.5 92.4062C69.5519 92.4062 75.9631 89.8783 80.3582 85.4832C84.7533 81.0881 87.2812 74.6769 87.2812 66.625C87.2812 58.0882 82.5946 47.841 76.9747 38.6858C71.3945 29.5951 65.0627 21.8455 62.0884 18.3655C62.0158 18.2807 61.9257 18.2127 61.8243 18.166C61.7229 18.1193 61.6126 18.0952 61.5009 18.0952ZM59.9233 15.4408C60.4181 15.2131 60.9563 15.0952 61.5009 15.0952C62.0456 15.0952 62.5838 15.2131 63.0786 15.4408C63.5733 15.6685 64.0129 16.0006 64.3672 16.4143L64.3681 16.4153C67.3903 19.9513 73.8346 27.8357 79.5315 37.1164C85.1893 46.3333 90.2812 57.196 90.2812 66.625C90.2812 75.3151 87.5396 82.5445 82.4795 87.6045C77.4195 92.6646 70.1901 95.4062 61.5 95.4062C52.8099 95.4062 45.5805 92.6646 40.5205 87.6045C35.4604 82.5445 32.7188 75.3151 32.7188 66.625C32.7188 57.196 37.8107 46.3333 43.4688 37.1163C49.1659 27.8356 55.6107 19.9513 58.634 16.4152L58.6347 16.4143C58.989 16.0006 59.4286 15.6685 59.9233 15.4408Z" fill="#004899"/>
<path opacity="0.45" fill-rule="evenodd" clip-rule="evenodd" d="M78.1719 66.6406C79.0003 66.6406 79.6719 67.3122 79.6719 68.1406C79.6719 72.1562 78.0767 76.0072 75.2373 78.8467C72.3979 81.6861 68.5468 83.2812 64.5312 83.2812C63.7028 83.2812 63.0312 82.6097 63.0312 81.7812C63.0312 80.9528 63.7028 80.2812 64.5312 80.2812C67.7511 80.2812 70.8392 79.0022 73.116 76.7253C75.3928 74.4485 76.6719 71.3605 76.6719 68.1406C76.6719 67.3122 77.3434 66.6406 78.1719 66.6406Z" fill="#004899"/>
</g>
</svg>
