<svg width="83" height="118" viewBox="0 0 83 118" fill="none" xmlns="http://www.w3.org/2000/svg">
<mask id="mask0_1360_18621" style="mask-type:alpha" maskUnits="userSpaceOnUse" x="0" y="0" width="83" height="118">
<path d="M0 0H83V118H0V0Z" fill="white"/>
</mask>
<g mask="url(#mask0_1360_18621)">
<g opacity="0.45">
<path fill-rule="evenodd" clip-rule="evenodd" d="M38.9503 50.5756C39.737 50.2259 40.6582 50.5802 41.0079 51.3669C45.3165 61.0613 51.2067 67.9969 58.3908 72.7863C65.5865 77.5835 74.1648 80.2832 83.9222 81.3674C84.7778 81.4625 85.3944 82.2332 85.2993 83.0888C85.2043 83.9445 84.4336 84.561 83.5779 84.466C73.4603 83.3418 64.3719 80.5207 56.6614 75.3804C48.9393 70.2323 42.6836 62.8137 38.1589 52.6331C37.8093 51.8464 38.1636 50.9252 38.9503 50.5756Z" fill="#004899"/>
<path fill-rule="evenodd" clip-rule="evenodd" d="M19.083 76.7997C11.5653 68.1336 7.10791 54.4701 7.10791 34.3952L7.10791 16.6667C7.10791 15.8058 7.80582 15.1078 8.66673 15.1078L17.5001 15.1078C17.5299 15.1078 17.5596 15.1087 17.5894 15.1104C37.0511 16.2273 50.7259 21.5834 59.5314 30.3854C68.3519 39.2025 72.0589 51.2485 72.0589 65.25L72.0589 78.5618C72.0589 78.9752 71.8947 79.3717 71.6023 79.6641C62.3202 88.9462 52.9545 88.954 48.4167 88.954L48.4124 88.954C37.0561 88.9222 26.6337 85.504 19.083 76.7997ZM48.4189 85.8363L48.4286 85.8363C52.6495 85.8363 60.7209 85.8364 68.9412 77.908L68.9412 65.25C68.9412 51.7886 65.3872 40.6471 57.3273 32.5904C49.2585 24.5248 36.4471 19.3224 17.4552 18.2255L10.2256 18.2255L10.2256 34.3952C10.2256 54.0702 14.6015 66.8758 21.438 74.7568C28.241 82.599 37.6928 85.8059 48.4189 85.8363Z" fill="#004899"/>
</g>
</g>
</svg>
