<svg width="83" height="118" viewBox="0 0 83 118" fill="none" xmlns="http://www.w3.org/2000/svg">
<mask id="mask0_1357_18700" style="mask-type:alpha" maskUnits="userSpaceOnUse" x="0" y="0" width="83" height="118">
<rect width="83" height="118" fill="white"/>
</mask>
<g mask="url(#mask0_1357_18700)">
<g opacity="0.45">
<path d="M41.0001 94.44H32.0001V91H43.5601V71.709V52.418L31.7351 44.811L33.5451 42.229L44.0871 48.553C44.9734 49.0885 45.7069 49.8431 46.2171 50.7442C46.7273 51.6453 46.9969 52.6625 47.0001 53.698V89.72C46.9985 91.3108 46.445 92.2751 45.3201 93.4C44.1952 94.5249 42.5909 94.4384 41.0001 94.44Z" fill="#004899"/>
<path d="M71 94.44H63.28C61.6892 94.4384 60.5249 94.5249 59.4 93.4C58.2751 92.2751 58.5616 90.0308 58.56 88.44V60.56H74C75.6762 60.5603 77.0677 60.7995 78.6 60.12C80.1323 59.4405 81.9548 58.8025 83.08 57.56C84.2052 56.3175 86.8106 54.032 87.3353 52.44C87.86 50.848 88.6689 47.76 88.503 44.812C88.1015 41.7773 86.5958 37.7169 84.2736 35.7223C81.9514 33.7277 78.9756 31.3789 75.915 31.44H71.166L69.355 27.823C67.636 22.808 59.093 16.44 50 16.44C46.5665 16.4512 43.2074 17.441 40.3164 19.2933C37.4254 21.1455 35.1222 23.7835 33.677 26.898L32.75 28.899L30.161 28.557C29.7772 28.4909 29.3893 28.4518 29 28.44C25.8174 28.44 21.4852 30.9843 19.2347 33.2347C16.9843 35.4852 14.44 39.8174 14.44 43C14.44 46.1826 15.7043 50.5148 19.2347 54.0453C21.4852 56.2957 25.8174 57.56 29 57.56V61C24.2261 61 19.6477 59.1036 16.2721 55.7279C12.8964 52.3523 11 47.7739 11 43C11 38.2261 12.8964 33.6477 16.2721 30.2721C19.6477 26.8964 24.2261 25 29 25L29.237 25.003C31.3475 21.3626 34.375 18.3389 38.018 16.2329C41.6609 14.1269 45.7921 13.0123 50 13C61.037 13 70.076 18.934 73.256 28H73.355C77.9052 27.9492 82.3143 29.578 85.7388 32.5746C89.1633 35.5712 91.3626 39.7253 91.916 44.242C92.1609 46.7421 91.8798 49.2658 91.0909 51.6508C90.302 54.0358 89.0227 56.2293 87.3353 58.0902C85.6478 59.9511 83.5896 61.4383 81.293 62.4561C78.9963 63.4739 76.5121 63.9998 74 64H62V91H71V94.44Z" fill="#004899"/>
</g>
</g>
</svg>
