<svg width="83" height="118" viewBox="0 0 83 118" fill="none" xmlns="http://www.w3.org/2000/svg">
<mask id="mask0_1357_18705" style="mask-type:alpha" maskUnits="userSpaceOnUse" x="0" y="0" width="83" height="118">
<rect width="83" height="118" fill="white"/>
</mask>
<g mask="url(#mask0_1357_18705)">
<g opacity="0.45">
<path d="M84.1359 62.2047L73.1652 55.0267L77.3892 47.2829C78.408 45.3492 78.9418 43.1971 78.9445 41.0115V28.7354C78.953 25.2837 77.9533 21.9046 76.0681 19.013C74.1829 16.1215 71.4944 13.8435 68.3326 12.4586C65.1708 11.0738 61.6734 10.6425 58.2698 11.2176C54.8663 11.7927 51.7048 13.3492 49.1736 15.6961L51.6165 17.1686C53.3704 15.5469 56.8246 14.4722 59.1803 14.0764C61.536 13.6805 63.9561 13.9806 66.1437 14.94C68.3314 15.8993 72.7219 20.0065 74.0265 22.0075C75.3312 24.0085 76.0236 26.3467 76.0188 28.7354V41.0115C76.0183 43.5493 74.6103 46.9972 74.0265 48.1281L69.1629 56.3516L81.1486 62.9742C82.1509 63.6302 85.5038 67.0566 86.0717 68.1113C86.6396 69.166 87.5119 71.6111 87.5078 72.809V84.8178H72.1245V87.3877H89.8566V72.8089C89.8621 70.7046 89.3416 68.6324 88.3426 66.7805C87.3435 64.9286 85.8975 63.3557 84.1359 62.2047Z" fill="#004899"/>
<path d="M59.5835 67.6607L48.6129 60.4827L52.8368 52.7389C53.8555 50.8053 54.3893 48.6531 54.3921 46.4675V34.1915C54.3885 29.486 52.5187 24.9741 49.1928 21.6456C45.8668 18.317 41.3564 16.4437 36.6509 16.4365C26.8784 16.4365 18.9279 24.4015 18.9279 34.1915V46.4675C18.9175 48.6521 19.4454 50.8056 20.465 52.7377L24.7118 60.5234L13.805 67.6607C12.0455 68.8099 10.6007 70.3802 9.6019 72.2292C8.60305 74.0782 8.08173 76.1473 8.08525 78.2488L8 92.8437H65.3041V78.2649C65.3096 76.1607 64.7892 74.0884 63.7901 72.2365C62.7911 70.3846 61.345 68.8117 59.5835 67.6607ZM62.3784 89.918H10.9574L11.0103 79.53C11.0061 78.3321 11.9155 74.6219 12.4834 73.5671C13.0514 72.5124 15.0235 70.3512 16.0259 69.6952L28.6775 62.3316L24.2495 52.7377C23.6723 51.6051 22.3467 49.0038 22.3517 46.4675V34.1915C22.3517 30.9356 23.2124 26.548 25.5146 24.2458C27.8168 21.9436 32.1441 19.6618 36.66 19.6618C39.9158 19.6618 44.7202 20.674 47.0224 24.2458C49.3246 26.548 50.8179 30.9356 50.8179 34.1915V46.4675C50.8174 49.0053 49.7765 50.3428 49.1928 52.7389L44.4921 62.29L56.5961 69.6954C57.5985 70.3514 60.9393 73.5673 60.9393 73.5673C62.7723 75.8872 62.3825 79.5975 62.3784 80.7954V89.918Z" fill="#004899"/>
</g>
</g>
</svg>
