<svg width="83" height="118" viewBox="0 0 83 118" fill="none" xmlns="http://www.w3.org/2000/svg">
<mask id="mask0_1357_18710" style="mask-type:alpha" maskUnits="userSpaceOnUse" x="0" y="0" width="83" height="118">
<rect width="83" height="118" fill="white"/>
</mask>
<g mask="url(#mask0_1357_18710)">
<g opacity="0.45">
<path d="M27.5268 15C22.2635 15 17.5745 18.4291 16.0633 23.4731L10.5807 43.2244L2.85331 40.6087L0.365234 43.78L8.21226 46.3997L5.72019 57.74C5.6246 58.1054 5.58296 58.4829 5.59658 58.8604V89.3252C5.59658 91.5182 7.39087 93.3125 9.58389 93.3125H14.3776L15.7493 87.8916H91.1393L92.5109 93.3125H97.3046C99.4977 93.3125 101.292 91.5182 101.292 89.3252V85.9599C101.308 84.3269 101.308 85.5413 101.292 85.3379V58.8604C101.306 58.4829 101.264 58.1054 101.168 57.74L98.6763 46.3997L106.523 43.784L104.031 40.6047L96.3078 43.2244L90.8253 23.4731C90.0782 21.0167 88.56 18.8662 86.4953 17.3401C84.4305 15.814 81.9292 14.9935 79.3618 15H27.5268ZM26.0931 18.6737H80.7954C82.5697 18.6737 85.9809 21.7745 86.4953 23.4731L92.6341 44.3448H14.2544L19.7544 23.4731C20.2727 21.7585 24.3188 18.6737 26.0931 18.6737ZM11.886 48.0185H95.0026L97.6182 59.61V84.2179H9.27028V59.606L11.886 48.0185Z" fill="#004899"/>
<path d="M21.4628 62.4755C22.4038 61.5345 23.6801 61.0058 25.0109 61.0058C26.3417 61.0058 27.618 61.5345 28.559 62.4755C29.5 63.4165 30.0286 64.6927 30.0286 66.0235C30.0286 67.3543 29.5 68.6306 28.559 69.5716C27.618 70.5126 26.3417 71.0413 25.0109 71.0413C23.6801 71.0413 22.4038 70.5126 21.4628 69.5716C20.5218 68.6306 19.9932 67.3543 19.9932 66.0235C19.9932 64.6927 20.5218 63.4165 21.4628 62.4755Z" fill="#004899"/>
<path d="M76.8075 62.4755C77.7486 61.5345 79.0248 61.0058 80.3556 61.0058C81.6864 61.0058 82.9627 61.5345 83.9037 62.4755C84.8447 63.4165 85.3734 64.6927 85.3734 66.0235C85.3734 67.3543 84.8447 68.6306 83.9037 69.5716C82.9627 70.5126 81.6864 71.0413 80.3556 71.0413C79.0248 71.0413 77.7486 70.5126 76.8075 69.5716C75.8665 68.6306 75.3379 67.3543 75.3379 66.0235C75.3379 64.6927 75.8665 63.4165 76.8075 62.4755Z" fill="#004899"/>
</g>
<path opacity="0.45" d="M70 75H38V71H70V75Z" fill="#004899"/>
</g>
</svg>
