<svg width="82" height="119" viewBox="0 0 82 119" fill="none" xmlns="http://www.w3.org/2000/svg">
<mask id="mask0_1351_18598" style="mask-type:alpha" maskUnits="userSpaceOnUse" x="0" y="0" width="82" height="119">
<rect width="82" height="119" fill="white"/>
</mask>
<g mask="url(#mask0_1351_18598)">
<path opacity="0.45" d="M63.4998 6.00001L57.9785 40.7H83.9999L47.3998 90.5L53.3998 54H28.9999L63.4998 6.00001ZM64.3292 3.06477C64.1773 3.06477 63.6488 3.05605 63.4998 3.06746C62.507 3.14948 62 3.5 61.445 4.0393C61 4.40991 60.45 5 60.45 5L59.9782 5.49693L28.46 48.1375C25.9998 51.5 25.0435 53.5766 25.9998 55.5C27.1255 57.7643 28.9999 57.385 32.9909 57.2643L49.2275 57.385L44.1228 88.1288C43.6376 90.771 44.1228 92.8951 45.4998 93.5C46.2047 93.8097 46.6327 94.0006 47.4 94C49.1677 94 49.9834 92.5621 49.9834 92.5621L84.541 46.355C86.9999 42.8993 88.241 41.5 86.9999 39C86.045 37.0766 83.1163 37.2 80.9999 37.2L61.8999 37.1995L65.6999 10.1673C65.8069 9.72472 65.8998 8.81459 65.8998 8.81459C65.9998 8.00001 66.9998 3.08184 64.5288 3.06746C64.4614 3.06459 64.3952 3.06477 64.3292 3.06477Z" fill="#004899"/>
</g>
</svg>
