<svg width="83" height="118" viewBox="0 0 83 118" fill="none" xmlns="http://www.w3.org/2000/svg">
<mask id="mask0_1357_18722" style="mask-type:alpha" maskUnits="userSpaceOnUse" x="0" y="0" width="83" height="118">
<rect width="83" height="118" fill="white"/>
</mask>
<g mask="url(#mask0_1357_18722)">
<g opacity="0.45">
<path d="M99.75 92.0548H94.3098V43.1173C94.3082 41.6757 93.7348 40.2935 92.7155 39.2741C91.6961 38.2548 90.3139 37.6814 88.8723 37.6798H58.0598V14.1173C58.0582 12.6757 57.4848 11.2935 56.4655 10.2741C55.4461 9.25475 54.0639 8.68137 52.6223 8.67981H9.12228C7.68064 8.68137 6.2985 9.25475 5.27911 10.2741C4.25972 11.2935 3.68634 12.6757 3.68478 14.1173V92.0548H-1.75C-2.2307 92.0548 -2.69172 92.2458 -3.03163 92.5857C-3.37154 92.9256 -3.5625 93.3866 -3.5625 93.8673C-3.5625 94.348 -3.37154 94.809 -3.03163 95.149C-2.69172 95.4889 -2.2307 95.6798 -1.75 95.6798H99.75C100.231 95.6798 100.692 95.4889 101.032 95.149C101.372 94.809 101.562 94.348 101.562 93.8673C101.562 93.3866 101.372 92.9256 101.032 92.5857C100.692 92.2458 100.231 92.0548 99.75 92.0548ZM88.8723 41.3048C89.3528 41.3053 89.8136 41.4964 90.1534 41.8362C90.4932 42.176 90.6843 42.6368 90.6848 43.1173V92.0548H58.0598V41.3048H88.8723ZM7.30978 14.1173C7.31026 13.6368 7.50138 13.176 7.84118 12.8362C8.18099 12.4964 8.64172 12.3053 9.12228 12.3048H52.6223C53.1028 12.3053 53.5636 12.4964 53.9034 12.8362C54.2432 13.176 54.4343 13.6368 54.4348 14.1173V92.0548H7.30978V14.1173ZM18.1848 28.6173C18.1848 28.1366 18.3757 27.6756 18.7157 27.3357C19.0556 26.9958 19.5166 26.8048 19.9973 26.8048H34.4973C34.978 26.8048 35.439 26.9958 35.7789 27.3357C36.1188 27.6756 36.3098 28.1366 36.3098 28.6173C36.3098 29.098 36.1188 29.559 35.7789 29.8989C35.439 30.2389 34.978 30.4298 34.4973 30.4298H19.9973C19.5166 30.4298 19.0556 30.2389 18.7157 29.8989C18.3757 29.559 18.1848 29.098 18.1848 28.6173ZM43.5598 57.6173C43.5598 58.098 43.3688 58.559 43.0289 58.899C42.689 59.2389 42.228 59.4298 41.7473 59.4298H27.2473C26.7666 59.4298 26.3056 59.2389 25.9657 58.899C25.6257 58.559 25.4348 58.098 25.4348 57.6173C25.4348 57.1366 25.6257 56.6756 25.9657 56.3357C26.3056 55.9958 26.7666 55.8048 27.2473 55.8048H41.7473C42.228 55.8048 42.689 55.9958 43.0289 56.3357C43.3688 56.6756 43.5598 57.1366 43.5598 57.6173ZM36.3098 75.7423C36.3098 76.223 36.1188 76.684 35.7789 77.024C35.439 77.3639 34.978 77.5548 34.4973 77.5548H19.9973C19.5166 77.5548 19.0556 77.3639 18.7157 77.024C18.3757 76.684 18.1848 76.223 18.1848 75.7423C18.1848 75.2616 18.3757 74.8006 18.7157 74.4607C19.0556 74.1208 19.5166 73.9298 19.9973 73.9298H34.4973C34.978 73.9298 35.439 74.1208 35.7789 74.4607C36.1188 74.8006 36.3098 75.2616 36.3098 75.7423ZM79.8098 75.7423C79.8098 76.223 79.6188 76.684 79.2789 77.024C78.939 77.3639 78.478 77.5548 77.9973 77.5548H70.7473C70.2666 77.5548 69.8056 77.3639 69.4657 77.024C69.1257 76.684 68.9348 76.223 68.9348 75.7423C68.9348 75.2616 69.1257 74.8006 69.4657 74.4607C69.8056 74.1208 70.2666 73.9298 70.7473 73.9298H77.9973C78.478 73.9298 78.939 74.1208 79.2789 74.4607C79.6188 74.8006 79.8098 75.2616 79.8098 75.7423ZM68.9348 57.6173C68.9348 57.1366 69.1257 56.6756 69.4657 56.3357C69.8056 55.9958 70.2666 55.8048 70.7473 55.8048H77.9973C78.478 55.8048 78.939 55.9958 79.2789 56.3357C79.6188 56.6756 79.8098 57.1366 79.8098 57.6173C79.8098 58.098 79.6188 58.559 79.2789 58.899C78.939 59.2389 78.478 59.4298 77.9973 59.4298H70.7473C70.2666 59.4298 69.8056 59.2389 69.4657 58.899C69.1257 58.559 68.9348 58.098 68.9348 57.6173Z" fill="#004899"/>
</g>
</g>
</svg>
